HIERARCHY
ROOT Hips
{
	OFFSET 0.00000 0.00000 0.00000
	CHANNELS 6 Xposition Yposition Zposition Zrotation Yrotation Xrotation 
	JOINT LHipJoint
	{
		OFFSET 0 0 0
		CHANNELS 3 Zrotation Yrotation Xrotation
		JOINT LeftUpLeg
		{
			OFFSET 1.61328 -1.70571 0.84375
			CHANNELS 3 Zrotation Yrotation Xrotation
			JOINT LeftLeg
			{
				OFFSET 2.32400 -6.38513 0.00000
				CHANNELS 3 Zrotation Yrotation Xrotation
				JOINT LeftFoot
				{
					OFFSET 2.58843 -7.11166 0.00000
					CHANNELS 3 Zrotation Yrotation Xrotation
					JOINT LeftToeBase
					{
						OFFSET 0.17200 -0.47257 2.47970
						CHANNELS 3 Zrotation Yrotation Xrotation
						End Site
						{
							OFFSET 0.00000 -0.00000 1.26912
						}
					}
				}
			}
		}
	}
	JOINT RHipJoint
	{
		OFFSET 0 0 0
		CHANNELS 3 Zrotation Yrotation Xrotation
		JOINT RightUpLeg
		{
			OFFSET -1.49930 -1.70570 0.84375
			CHANNELS 3 Zrotation Yrotation Xrotation
			JOINT RightLeg
			{
				OFFSET -2.30458 -6.33178 0.00000
				CHANNELS 3 Zrotation Yrotation Xrotation
				JOINT RightFoot
				{
					OFFSET -2.62261 -7.20556 0.00000
					CHANNELS 3 Zrotation Yrotation Xrotation
					JOINT RightToeBase
					{
						OFFSET -0.18709 -0.51403 2.51340
						CHANNELS 3 Zrotation Yrotation Xrotation
						End Site
						{
							OFFSET -0.00000 -0.00000 1.28858
						}
					}
				}
			}
		}
	}
	JOINT LowerBack
	{
		OFFSET 0 0 0
		CHANNELS 3 Zrotation Yrotation Xrotation
		JOINT Spine
		{
			OFFSET -0.03798 2.19274 -0.19881
			CHANNELS 3 Zrotation Yrotation Xrotation
			JOINT Spine1
			{
				OFFSET -0.00024 2.19460 0.05248
				CHANNELS 3 Zrotation Yrotation Xrotation
				JOINT Neck
				{
					OFFSET 0 0 0
					CHANNELS 3 Zrotation Yrotation Xrotation
					JOINT Neck1
					{
						OFFSET -0.00746 1.82323 0.17286
						CHANNELS 3 Zrotation Yrotation Xrotation
						JOINT Head
						{
							OFFSET 0.11826 1.82121 -0.27841
							CHANNELS 3 Zrotation Yrotation Xrotation
							End Site
							{
								OFFSET 0.03496 1.85543 -0.11495
							}
						}
					}
				}
				JOINT LeftShoulder
				{
					OFFSET 0 0 0
					CHANNELS 3 Zrotation Yrotation Xrotation
					JOINT LeftArm
					{
						OFFSET 3.71926 0.78840 0.25473
						CHANNELS 3 Zrotation Yrotation Xrotation
						JOINT LeftForeArm
						{
							OFFSET 5.37587 -0.00000 0.00000
							CHANNELS 3 Zrotation Yrotation Xrotation
							JOINT LeftHand
							{
								OFFSET 3.35977 -0.00000 0.00000
								CHANNELS 3 Zrotation Yrotation Xrotation
								JOINT LeftFingerBase
								{
									OFFSET 0 0 0
									CHANNELS 3 Zrotation Yrotation Xrotation
									JOINT LeftHandIndex1
									{
										OFFSET 0.56186 -0.00000 0.00000
										CHANNELS 3 Zrotation Yrotation Xrotation
										End Site
										{
											OFFSET 0.45299 -0.00000 0.00000
										}
									}
								}
								JOINT LThumb
								{
									OFFSET 0 0 0
									CHANNELS 3 Zrotation Yrotation Xrotation
									End Site
									{
										OFFSET 0.45990 -0.00000 0.45990
									}
								}
							}
						}
					}
				}
				JOINT RightShoulder
				{
					OFFSET 0 0 0
					CHANNELS 3 Zrotation Yrotation Xrotation
					JOINT RightArm
					{
						OFFSET -3.65136 0.56074 0.01624
						CHANNELS 3 Zrotation Yrotation Xrotation
						JOINT RightForeArm
						{
							OFFSET -5.22819 -0.00000 0.00000
							CHANNELS 3 Zrotation Yrotation Xrotation
							JOINT RightHand
							{
								OFFSET -3.40764 -0.00000 0.00000
								CHANNELS 3 Zrotation Yrotation Xrotation
								JOINT RightFingerBase
								{
									OFFSET 0 0 0
									CHANNELS 3 Zrotation Yrotation Xrotation
									JOINT RightHandIndex1
									{
										OFFSET -0.58325 -0.00000 0.00000
										CHANNELS 3 Zrotation Yrotation Xrotation
										End Site
										{
											OFFSET -0.47024 -0.00000 0.00000
										}
									}
								}
								JOINT RThumb
								{
									OFFSET 0 0 0
									CHANNELS 3 Zrotation Yrotation Xrotation
									End Site
									{
										OFFSET -0.47742 -0.00000 0.47742
									}
								}
							}
						}
					}
				}
			}
		}
	}
}
MOTION
Frames: 6
Frame Time: .0083333
47.7653 16.8059 -6.7696 0 0 0 0 0 0 -21 0 0 0 0 0 0 0 0 0 0 0 0 0 0 21 0 0 0 0 0 0 0 0 0 0 0 0 0 0 0 0 0 0 0 0 0 0 -16 0 0 21 0 0 11 0 0 0 -8 0 0 0 0 0 0 0 0 0 0 0 0 0 0 0 0 0 0 0 0 8 0 0 0 0 0 0 0 0 0 0 0 0 0 0 0 0 0
47.7653 16.8059 -6.7696 -69.4795 -88.3283 71.3243 0.0000 0.0000 0.0000 -18.9328 0.8184 -3.7876 0.9909 6.3357 17.7615 0.7166 4.6816 -18.3672 0.0140 -0.7650 -2.1025 0.0000 0.0000 0.0000 23.2856 1.9361 -10.7778 -2.7039 -10.1995 29.6252 -1.7407 -0.9477 -25.3082 -0.8657 -5.9329 16.5899 -0.1316 -0.2945 -4.5888 0.8919 -0.4467 2.9052 0.9571 -0.2514 5.5960 -7.3775 -7.1706 -6.9318 11.8393 -9.8976 5.5083 4.2180 -4.6352 3.7445 -0.0000 -0.0000 0.0000 -90.4714 -0.8349 25.2409 13.6432 -22.2223 -2.6917 -0.0000 0.0000 -7.0050 19.9888 15.5906 5.5836 -7.1250 0.0000 -0.0000 -7.2682 46.3872 -0.2501 -0.0000 -0.0000 0.0000 89.6950 0.6105 20.3054 -13.4390 21.9270 -2.6149 0.0000 -0.0000 -1.9957 -22.5577 5.0518 -2.0948 7.1250 -0.0000 -0.0000 3.0761 -24.5124 1.5247
47.7629 16.8059 -6.7698 -68.5119 -88.3418 70.3616 0.0000 0.0000 0.0000 -18.9592 0.7708 -3.7500 0.9874 6.3245 17.7290 0.7175 4.7067 -18.3941 0.0130 -0.7349 -2.0196 0.0000 0.0000 0.0000 23.2610 1.9200 -10.7879 -2.7069 -10.2047 29.6423 -1.7406 -0.9688 -25.3153 -0.8523 -5.8877 16.4591 -0.1649 -0.3041 -4.6000 0.8890 -0.4569 2.9003 0.9718 -0.2576 5.5977 -7.3506 -7.1329 -6.9545 11.8289 -9.8424 5.4642 4.2146 -4.6081 3.7278 0.0000 -0.0000 0.0000 -90.4762 -0.8302 25.2597 13.6433 -22.2225 -2.6917 -0.0000 0.0000 -7.0249 19.9794 15.6825 5.6126 -7.1250 0.0000 -0.0000 -7.2986 46.4817 -0.2683 0.0000 -0.0000 0.0000 89.6876 0.6114 20.3220 -13.4404 21.9291 -2.6155 0.0000 -0.0000 -1.9768 -22.5396 5.0096 -2.0755 7.1250 -0.0000 -0.0000 3.0896 -24.5587 1.5281
47.7626 16.8057 -6.7690 -68.4891 -88.3489 70.3593 0.0000 0.0000 0.0000 -18.9715 0.7672 -3.7676 0.9878 6.3259 17.7331 0.7204 4.6697 -18.3999 0.0115 -0.6925 -1.9030 0.0000 0.0000 0.0000 23.2457 1.9118 -10.8132 -2.7068 -10.2045 29.6415 -1.7404 -0.9364 -25.3022 -0.8593 -5.9114 16.5276 -0.1616 -0.3062 -4.6030 0.8850 -0.4594 2.8863 0.9656 -0.2585 5.5846 -7.3858 -7.1558 -6.9222 11.8621 -9.8783 5.4952 4.2283 -4.6258 3.7388 -0.0000 0.0000 0.0000 -90.4912 -0.8335 25.1999 13.6375 -22.2141 -2.6895 -0.0000 0.0000 -6.9638 19.9807 15.5734 5.5752 -7.1250 0.0000 -0.0000 -7.2716 46.3683 -0.2468 -0.0000 0.0000 0.0000 89.6929 0.6006 20.3502 -13.4472 21.9390 -2.6180 0.0000 -0.0000 -2.0258 -22.5574 5.0300 -2.0858 7.1250 -0.0000 -0.0000 3.0763 -24.5359 1.5231
47.7600 16.8053 -6.7701 -68.7161 -88.3241 70.5767 0.0000 0.0000 0.0000 -18.9390 0.7623 -3.7539 0.9881 6.3267 17.7354 0.7187 4.7047 -18.4048 0.0129 -0.7341 -2.0175 0.0000 0.0000 0.0000 23.2865 1.9498 -10.7756 -2.7062 -10.2035 29.6383 -1.7449 -0.9728 -25.3479 -0.8582 -5.9075 16.5163 -0.1509 -0.2968 -4.6034 0.8924 -0.4480 2.8876 0.9683 -0.2526 5.5861 -7.3562 -7.1474 -6.9532 11.8367 -9.8654 5.4939 4.2158 -4.6187 3.7394 0.0000 -0.0000 0.0000 -90.4845 -0.8342 25.2416 13.6379 -22.2146 -2.6897 -0.0000 0.0000 -6.9801 19.9868 15.5768 5.5782 -7.1250 0.0000 -0.0000 -7.2668 46.3727 -0.2475 0.0000 -0.0000 0.0000 89.6995 0.6033 20.3326 -13.4450 21.9357 -2.6172 0.0000 -0.0000 -2.0072 -22.5482 5.0486 -2.0926 7.1250 -0.0000 -0.0000 3.0832 -24.5161 1.5280
47.7580 16.8051 -6.7707 -68.7862 -88.3103 70.6452 0.0000 0.0000 0.0000 -18.9219 0.7509 -3.7518 0.9895 6.3310 17.7480 0.7189 4.7146 -18.4139 0.0133 -0.7443 -2.0456 0.0000 0.0000 0.0000 23.3086 1.9713 -10.7538 -2.7048 -10.2012 29.6306 -1.7473 -0.9942 -25.3727 -0.8574 -5.9049 16.5086 -0.1467 -0.2938 -4.6044 0.8969 -0.4446 2.8845 0.9709 -0.2508 5.5833 -7.3519 -7.1454 -6.9569 11.8365 -9.8630 5.4926 4.2151 -4.6173 3.7392 0.0000 0.0000 0.0000 -90.4873 -0.8373 25.2439 13.6330 -22.2076 -2.6878 -0.0000 0.0000 -6.9709 19.9855 15.5612 5.5724 -7.1250 0.0000 -0.0000 -7.2643 46.3561 -0.2444 0.0000 0.0000 0.0000 89.7029 0.5998 20.3402 -13.4475 21.9393 -2.6181 0.0000 -0.0000 -2.0134 -22.5515 5.0578 -2.0967 7.1250 -0.0000 -0.0000 3.0808 -24.5061 1.5275
